<svg xmlns="http://www.w3.org/2000/svg" width="160.995" height="32.744" viewBox="0 0 160.995 32.744"><defs><style>.a{fill:#111987;}</style></defs><g transform="translate(-98.442 -658.3)"><path class="a" d="M273.844,702.36h2.487v-1.232h-2.487v-1.976h2.7V697.92h-4.374v8.017h4.463V704.7h-2.787Zm12.336,0h2.486v-1.232h-2.486v-1.976h2.7V697.92H284.5v8.017h4.465V704.7h-2.787Zm-5.8-3.375c.889,0,1.011.656,1,1.4h1.666a2.291,2.291,0,0,0-2.566-2.6c-2.742,0-2.843,2.054-2.843,4.075,0,3.042.323,4.208,3.143,4.208a15.308,15.308,0,0,0,2.266-.267v-4.064h-2.587v1.233h.909v1.777a2.649,2.649,0,0,1-.833.155c-.955,0-1.2-.444-1.2-2.954C279.34,700.4,279.34,698.986,280.384,698.986Zm-11.458-1.066h-1.677v8.017h4.186V704.6h-2.509Zm-73.484,0-2.22,8.017h1.654l.456-1.777h2.288l.444,1.777h1.766l-2.176-8.017Zm.222,5.007.766-3.464h.023l.81,3.464Zm15.655-5.141c-2.764,0-2.764,2.021-2.764,4.142,0,2.1,0,4.142,2.764,4.142s2.765-2.043,2.765-4.142C214.085,699.807,214.085,697.786,211.32,697.786Zm0,7.085c-.944,0-1.065-.889-1.065-2.943s.122-2.942,1.065-2.942,1.066.888,1.066,2.942S212.264,704.871,211.32,704.871Zm-21.363-2.51h2.488v-1.232h-2.488v-1.976h2.7V697.92h-4.375v8.017h4.464V704.7h-2.787Zm12.492-3.108h1.865v6.685h1.677v-6.685h1.865V697.92h-5.407Zm-29.735-1.332-1.965,3.431h-.022V697.92H169.05v8.017h1.677v-4.11h.022l1.921,4.11h1.888l-2.243-4.42,2.243-3.6Zm5.3-.134c-2.765,0-2.765,2.021-2.765,4.142,0,2.1,0,4.142,2.765,4.142s2.765-2.043,2.765-4.142C180.775,699.807,180.775,697.786,178.01,697.786Zm0,7.085c-.944,0-1.066-.889-1.066-2.943s.122-2.942,1.066-2.942,1.066.888,1.066,2.942S178.954,704.871,178.01,704.871Zm7.551-2.865v-.023a1.728,1.728,0,0,0,1.488-1.965c0-1.366-.733-2.1-1.877-2.1h-3.1v8.017h1.677v-3.321h.433c1.287,0,1.2.811,1.2,1.766a3.682,3.682,0,0,0,.178,1.555H187.2a11.011,11.011,0,0,1-.189-2.354A1.424,1.424,0,0,0,185.561,702.006Zm-1.066-.621h-.744v-2.232h.744c.533,0,.855.289.855,1.055C185.35,700.717,185.161,701.384,184.495,701.384Zm41.161.621v-.023a1.728,1.728,0,0,0,1.488-1.965c0-1.366-.733-2.1-1.876-2.1h-3.1v8.017h1.677v-3.321h.433c1.288,0,1.2.811,1.2,1.766a3.673,3.673,0,0,0,.177,1.555H227.3a10.975,10.975,0,0,1-.188-2.354A1.424,1.424,0,0,0,225.655,702.006Zm-1.065-.621h-.745v-2.232h.745c.532,0,.854.289.854,1.055C225.444,700.717,225.256,701.384,224.59,701.384Zm16.988,1.987h-.022L240.3,697.92h-2.7v8.017h1.632v-6.185h.022l1.466,6.185h1.6l1.543-6.185h.022v6.185h1.632V697.92H242.91Zm10.46,1.5c-.945,0-1.067-.889-1.067-2.943s.122-2.942,1.067-2.942c.5,0,.688.4.688,1.466h1.643c.066-1.721-.622-2.666-2.332-2.666-2.766,0-2.766,2.021-2.766,4.142,0,2.1,0,4.142,2.766,4.142,1.566,0,2.42-.688,2.42-2.831H252.8C252.782,703.871,252.814,704.871,252.038,704.871Zm-32.877-1.377c0,.888-.334,1.377-1.066,1.377-.611,0-1.033-.389-1.033-1.377V697.92h-1.676V703.6c0,1.51.889,2.465,2.731,2.465a2.384,2.384,0,0,0,2.72-2.465V697.92h-1.675Zm39.051-5.708c-2.765,0-2.765,2.021-2.765,4.142,0,2.1,0,4.142,2.765,4.142s2.764-2.043,2.764-4.142C260.976,699.807,260.976,697.786,258.212,697.786Zm0,7.085c-.945,0-1.066-.889-1.066-2.943s.122-2.942,1.066-2.942,1.066.888,1.066,2.942S259.155,704.871,258.212,704.871ZM264,697.92H262.32v8.017H266.5V704.6H264Zm-35.619,8.017h1.676V697.92h-1.676Zm4.686-6.1a.78.78,0,0,1,.866-.855c.677,0,.778.611.778,1.211h1.632c.111-1.677-.7-2.41-2.331-2.41-2.044,0-2.644,1-2.644,2.254,0,2.387,3.375,2.477,3.375,3.919a.8.8,0,0,1-.844.911c-.922,0-.955-.644-.955-1.411h-1.677c-.089,1.388.3,2.61,2.375,2.61,1.277,0,2.8-.245,2.8-2.321C236.437,701.228,233.062,701.362,233.062,699.84Z" transform="translate(-29.531 -16.514)"/><g transform="translate(139.156 660.9)"><path class="a" d="M251.954,668.3h-1v-4.7h-2.329v9.679h-5.711v-7.453h4.51V663.6h-7.015v10.568a1.55,1.55,0,0,0,.3,1.07,1.262,1.262,0,0,0,.9.268h7.02v3.345h2.329v-8.273h1v8.282h2.381V663.6h-2.381Zm18.785-2.319v-2.4h-2.481v7.537h2.481V668.2h2v-2.225Zm-13.082,8.579h10.6v4.293h2.481v-6.519H257.657Zm-.37-6.708a3.45,3.45,0,0,0,1.283,2.738,4.211,4.211,0,0,0,2.827,1.019,4.129,4.129,0,0,0,2.792-1.019,3.468,3.468,0,0,0,1.263-2.738,2.472,2.472,0,0,0-.156-.859,2.891,2.891,0,0,0-.369-.733h1.035v-2.093h-3.238v-1.4h-2.632v1.4h-3.314v2.093H257.8a3.2,3.2,0,0,0-.387.752A2.9,2.9,0,0,0,257.287,667.85Zm2.925-1.132a1.755,1.755,0,0,1,2.343,0,1.51,1.51,0,0,1,.5,1.144,1.468,1.468,0,0,1-.5,1.109,1.662,1.662,0,0,1-2.343,0,1.473,1.473,0,0,1-.493-1.109A1.515,1.515,0,0,1,260.211,666.719ZM236.367,663.6h-2.481v6.177h-2.379V663.6h-8.886v2.226h6.406v3.951h-2.253v-2.45h-2.455v2.45h-2.388V672H226.2a5.38,5.38,0,0,0-.738,1.3,4.218,4.218,0,0,0-.262,1.464,4.624,4.624,0,0,0,1.564,3.5,5.6,5.6,0,0,0,7.55,0,4.6,4.6,0,0,0,1.581-3.5,3.933,3.933,0,0,0-.3-1.5,4.461,4.461,0,0,0-.824-1.267h1.6v-4.128h1.983v-2.226h-1.983Zm-3.923,12.994a2.716,2.716,0,0,1-1.945.789,2.634,2.634,0,0,1-1.909-.789,2.541,2.541,0,0,1,0-3.684,2.668,2.668,0,0,1,1.909-.75,2.756,2.756,0,0,1,1.945.75,2.434,2.434,0,0,1,.841,1.861A2.391,2.391,0,0,1,232.444,676.589ZM182.787,663.6h-2.478v10.462h2.478v-4.4h2V667.4h-2Zm-10.62,9.619h-2.479v4.235a1.492,1.492,0,0,0,.316,1.07,1.211,1.211,0,0,0,.88.266h12.008V676.56H172.167Zm-3.181-4.882a3.806,3.806,0,0,0,1.386,3,4.664,4.664,0,0,0,6.121,0,3.771,3.771,0,0,0,1.385-3,3,3,0,0,0-.211-1.109,3.766,3.766,0,0,0-.564-.931h1.319v-2.128h-3.7v-1.4h-2.63v1.4h-3.667v2.128h1.242a4.28,4.28,0,0,0-.507.966A3.477,3.477,0,0,0,168.986,668.333Zm3-1.368a2.116,2.116,0,0,1,2.856,0,1.889,1.889,0,0,1,.631,1.432,1.864,1.864,0,0,1-.631,1.413,2.067,2.067,0,0,1-2.856,0,2,2,0,0,1,0-2.845Zm28.777-3.369H186.856v2.226h11.427v2.7H186.324v2.227h6.249V672.8h-5.74v2.225h11.45v3.828h2.481V672.8h-5.736v-2.052H201.5v-2.227h-.737Zm17.621,0H215.9v6.2h-2.379v-6.2h-8.886v2.226h6.406V669.8h-2.228v-2.431h-2.454V669.8h-2.4v2.228H215.9v2.951h2.48v-6.527h1.984v-2.228h-1.984Zm-10.62,9.647h-2.478v4.2a1.482,1.482,0,0,0,.316,1.068,1.263,1.263,0,0,0,.9.267H218.49v-2.225H207.765Z" transform="translate(-168.425 -662.769)"/><g transform="translate(105.344 0.831)"><path class="a" d="M364.3,676.429v2.235H349.5v-2.235h2.332v-6.277h2.436v6.277h1.741v-6.277h2.438v6.277h2.211v-10H350.371V664.2h12.742v12.232Z" transform="translate(-349.501 -664.197)"/></g></g><g transform="translate(98.442 658.3)"><path class="a" d="M139.626,669.815c.5.475.93.264,1.278-.1l1.264-1.333a.76.76,0,0,0,0-1.242c-.495-.471-.924-.26-1.273.108l-1.263,1.333A.759.759,0,0,0,139.626,669.815Zm.347-.87,1.31-1.383c.247-.259.447-.3.611-.141s.141.362-.1.622l-1.312,1.382c-.213.227-.43.25-.583.1S139.758,669.171,139.973,668.944Z" transform="translate(-115.533 -661.882)"/><path class="a" d="M137.338,667.808c.482.329.774.176.991-.14l.228-.332-.392-.266-.143.209c-.169.247-.341.289-.5.183-.131-.09-.2-.229.04-.583l1-1.469c.247-.362.392-.489.61-.341.175.119.158.285.027.477l-.141.208.39.267.205-.3a.626.626,0,0,0-.233-.956c-.565-.386-.954-.109-1.24.31l-1.034,1.518C136.835,667.057,136.815,667.452,137.338,667.808Z" transform="translate(-114.538 -660.927)"/><path class="a" d="M128.713,664.282c.594.075.854-.221.926-.786.055-.433-.012-.618-.436-1.19-.4-.537-.429-.692-.4-.937.037-.279.147-.382.351-.356s.263.155.238.359l-.036.283.469.061.041-.338a.579.579,0,0,0-.087-.479.85.85,0,0,0-.558-.272c-.545-.07-.851.149-.926.739a1.506,1.506,0,0,0,.446,1.171c.453.579.457.682.417.985-.03.234-.117.406-.38.373-.2-.024-.272-.186-.243-.425l.038-.295-.5-.063-.055.429C127.963,663.989,128.252,664.224,128.713,664.282Z" transform="translate(-110.81 -659.268)"/><path class="a" d="M131.3,664.69l1.04-3.1.008,0-.505,3.278.477.161,1.527-2.936.009,0-1.04,3.1.447.15,1.156-3.443-.738-.247-1.32,2.475-.009,0,.442-2.77-.758-.255-1.155,3.443Z" transform="translate(-112.011 -659.474)"/><path class="a" d="M142.014,672.672l.334-.259-.52-.668,2.535-1.969-.311-.4-2.865,2.227Z" transform="translate(-116.319 -662.934)"/><path class="a" d="M147.63,678.521l-1.781.442c-.546.137-.823.417-.67,1.037a4.3,4.3,0,0,0,.289.784l1.773-.44-.2-.81-.41.1.079.322-1.034.256a1.416,1.416,0,0,1-.112-.3c-.051-.2.1-.382.379-.451l1.778-.443c.375-.093.608-.032.664.193.047.19-.074.349-.323.411l-.18.044.12.49.323-.082c.449-.11.57-.431.44-.953C148.607,678.491,148.288,678.358,147.63,678.521Z" transform="translate(-117.971 -666.73)"/><path class="a" d="M145.765,684l.422-.039-.08-.861,1.222-.112.074.811.42-.037-.074-.812,1.132-.1.078.862.421-.04-.125-1.361-3.616.33Z" transform="translate(-118.182 -668.342)"/><path class="a" d="M143.386,675.058l.363-.213-.426-.729,2.771-1.619-.255-.434L142.7,673.9Z" transform="translate(-116.954 -664.056)"/><path class="a" d="M144.477,677.65l.39-.164-.334-.8,1.132-.474.314.75.39-.162-.314-.752,1.049-.439.334.8.39-.162-.529-1.262-3.351,1.4Z" transform="translate(-117.474 -665.279)"/><path class="a" d="M109.043,671.713l-.016-.009.3-.33-.572-.748.529-.579.8.5.339-.371-3.179-1.9-.393.43,2.054,2.919-.213-.141-.475.724-1.026-.673.447-.681-.354-.233-.446.682-.951-.622.475-.724-.354-.232-.749,1.145,3.036,1.991Zm-1.625-2.843.008-.008,1.5.951-.431.471Z" transform="translate(-101.292 -662.471)"/><path class="a" d="M116.082,665.693c.242.508.575.724,1.154.445.622-.3.577-.774.359-1.23l-.794-1.656c-.244-.508-.574-.723-1.159-.443-.617.3-.574.771-.353,1.229Zm-.271-2.529c.208-.1.388,0,.542.318l.826,1.72c.134.282.079.492-.112.585s-.385,0-.519-.282l-.823-1.719C115.569,663.461,115.607,663.26,115.811,663.163Z" transform="translate(-105.425 -660.134)"/><path class="a" d="M112.184,665.032,114,667.679l.415-.285-1.814-2.646.5-.341-.24-.348-1.41.968.239.348Z" transform="translate(-103.881 -660.708)"/><path class="a" d="M101.875,681.543l-.049.5,1.569.954,0,.01-1.647-.163-.048.5,3.613.356.05-.5-1.807-.177v-.01l1.883-.614.056-.56-2.005.712Z" transform="translate(-99.804 -668.021)"/><path class="a" d="M105.6,675.707c.137-.3.245-.318.555-.176l.746.343a.617.617,0,0,0,.322.081l.2-.429a2.4,2.4,0,0,1-.433-.167l-.719-.329c-.31-.143-.52-.11-.693.185l-.009,0c.058-.428-.106-.575-.549-.778-.724-.333-.933-.346-1.24.322l-.325.708,3.3,1.517.211-.458-1.435-.66Zm-.4-.14-.055.119-1.1-.506.1-.218c.13-.284.187-.291.677-.065S105.363,675.206,105.2,675.567Z" transform="translate(-100.537 -664.954)"/><path class="a" d="M123.777,664.247l-.165-1.571.168-.018c.33-.034.4.048.437.39l.086.814a.623.623,0,0,0,.093.319l.471-.048a2.493,2.493,0,0,1-.077-.458l-.084-.785c-.035-.34-.168-.5-.513-.5v-.011c.4-.166.44-.385.389-.87-.083-.789-.177-.977-.908-.9l-.776.081.379,3.612Zm-.1-3.217c.313-.032.347.016.4.549s.012.622-.384.664l-.132.014-.125-1.2Z" transform="translate(-108.67 -659.258)"/><path class="a" d="M105.367,678.5l-1.77-.477c-.545-.147-.924-.035-1.092.593-.179.66.213.935.7,1.069l1.772.476c.543.146.923.034,1.091-.588C106.247,678.911,105.858,678.634,105.367,678.5Zm.322.971c-.052.2-.249.293-.55.211l-1.84-.495c-.347-.094-.473-.253-.415-.471s.251-.3.6-.2l1.841.495C105.62,679.091,105.744,679.27,105.688,679.474Z" transform="translate(-100.122 -666.526)"/><rect class="a" width="3.632" height="0.503" transform="matrix(0.009, -1, 1, 0.009, 16.436, 4.898)"/><path class="a" d="M120.488,664.772a.758.758,0,0,0,.589-1.048l-.762-2.706-.483.135.783,2.79c.066.238.015.383-.232.453s-.375-.027-.441-.264l-.784-2.788-.483.136.76,2.7A.759.759,0,0,0,120.488,664.772Z" transform="translate(-106.904 -659.436)"/><path class="a" d="M126.576,709.87a.666.666,0,0,0-.471.191.608.608,0,0,0-.188.456.6.6,0,0,0,.2.44.661.661,0,0,0,.475.183.678.678,0,0,0,.482-.2.587.587,0,0,0-.015-.9A.7.7,0,0,0,126.576,709.87Z" transform="translate(-109.933 -679.868)"/><path class="a" d="M142.722,699.832a.427.427,0,0,0-.262.161.417.417,0,0,0-.092.3.36.36,0,0,0,.145.268.351.351,0,0,0,.287.069.391.391,0,0,0,.271-.157.4.4,0,0,0,.084-.3.36.36,0,0,0-.137-.261A.377.377,0,0,0,142.722,699.832Z" transform="translate(-116.813 -675.668)"/><path class="a" d="M114.816,658.3a16.372,16.372,0,1,0,16.372,16.372A16.392,16.392,0,0,0,114.816,658.3Zm0,.272a16.117,16.117,0,0,1,16.1,15.944H125.07c0-.083.005-.166.005-.248a10.041,10.041,0,0,0-9.633-10.016l-.059,0c-.113,0-.229-.017-.344-.017a9.951,9.951,0,0,0-4.226.944l-.045.021a10.1,10.1,0,0,0-5.069,5.467l-.069.184c-.01.03-.017.06-.029.091h0a9.86,9.86,0,0,0-.6,3.327c0,.082,0,.165,0,.248H98.717A16.117,16.117,0,0,1,114.816,658.572Zm11.628,22.956-.378.485-1.449-1.128.377-.484.46.36.305-.392.427.335-.3.391Zm-18.058-.031c-.223-.207-.429-.432-.632-.657.175-.037.39-.077.639-.109C108.386,680.941,108.379,681.2,108.386,681.5Zm-.226-2.768c-.132.018-.267.045-.4.069s-.29.048-.438.081a10.575,10.575,0,0,0-2.587.884c.162-.292,2.242-4.153,2.244-4.157.151-.118,3.139-2.432,7.759.108v4.358c-.049-.034-.111-.076-.181-.119l-.08-.048c-.051-.03-.1-.063-.161-.1-.037-.024-.081-.048-.122-.07-.058-.03-.113-.06-.173-.092s-.108-.054-.162-.083l-.2-.09-.195-.089c-.066-.028-.141-.057-.212-.085l-.233-.091c-.073-.028-.151-.053-.227-.079s-.172-.061-.266-.089l-.245-.068q-.278-.077-.584-.141c-.088-.019-.173-.039-.267-.055-.112-.02-.227-.036-.343-.052-.1-.015-.2-.029-.3-.04-.119-.015-.245-.024-.37-.034-.1-.008-.207-.015-.314-.019-.13-.008-.262-.009-.394-.009-.112,0-.227,0-.343,0-.136,0-.272.009-.415.018-.118.007-.242.022-.363.034C108.453,678.694,108.308,678.71,108.16,678.729Zm8.885-13.21c-.076-.022-.151-.05-.232-.068a6,6,0,0,0-.948-.126c-.141-.393-.26-.693-.336-.875.392.02,1.006.109,1.006.109A1.217,1.217,0,0,0,117.045,665.519Zm7.145,5.336a1.264,1.264,0,0,1,.113.12,9.465,9.465,0,0,1,.5,2.085,1.569,1.569,0,0,1-1.08.532,1.742,1.742,0,0,1,.524-.812.9.9,0,0,0,.351-.642.472.472,0,0,0-.063-.238,3.922,3.922,0,0,0-.956-.568,2.927,2.927,0,0,0,.242-.568l.07-.162C123.986,670.685,124.088,670.764,124.189,670.854Zm-.287-.478c.014-.1.035-.19.043-.291.077.162.137.332.2.5C124.066,670.511,123.985,670.444,123.9,670.376Zm.9,4.594a.7.7,0,0,0-.59.741.612.612,0,0,0,.5.386c-.061.329-.162.734-.272,1.116-.069.218-.147.434-.229.647l-1.424-2.8-.036-.016c-.159-.072-.308-.125-.464-.188.056-.152.215-.509.507-.589.23-.059.5.067.807.374l.019.018.027.005a1.467,1.467,0,0,0,1.24-.318c0,.208-.011.411-.027.616A.457.457,0,0,0,124.8,674.97Zm.042.18c-.025.259-.063.517-.106.773a.4.4,0,0,1-.347-.248c-.047-.412.43-.521.45-.525Zm.025-1.057a1.213,1.213,0,0,1-1.169.394,1.05,1.05,0,0,0-.955-.4.99.99,0,0,0-.586.6q-.343-.874-.723-1.648a4.8,4.8,0,0,0,1.468-.818,3.022,3.022,0,0,0,.514-.591s.078-.122.084-.132a4.891,4.891,0,0,1,.874.5c.01.016.156.26-.255.65-.073.066-.679.658-.575,1.063l.016.067.067,0a1.788,1.788,0,0,0,1.208-.49c.029.268.04.506.043.779Zm-10.024,1.4a8.779,8.779,0,0,0-4.292-1.169c.363-.658.741-1.263,1.122-1.833a15.549,15.549,0,0,0,3.341,1.015,19.381,19.381,0,0,0,2.172.139c.009.26.009.526.009.793A6.95,6.95,0,0,0,114.845,675.5Zm.047,4.651c-.009.006-.018.01-.027.016a.107.107,0,0,0-.02-.016Zm-4.269-8.626-.02-.024a1.041,1.041,0,0,0-.717-.353c-.02,0-.038.011-.056.011A5.163,5.163,0,0,1,108.777,670a4.065,4.065,0,0,1-.414-.846l.921.03.023-.062a.307.307,0,0,1,.2-.205.818.818,0,0,1,.652.206.162.162,0,0,0,.267-.069,1.366,1.366,0,0,0,.025-.291.76.76,0,0,0-.166-.522.386.386,0,0,0-.079-.062c.431-.176.881-.334,1.356-.476a.459.459,0,0,0-.02.091.324.324,0,0,0,.064.2.649.649,0,0,0,.55.182c.022.04,0-.009.07.124s.227.216.334.013a.858.858,0,0,1,.829-.493.666.666,0,0,0,.393.018,4.438,4.438,0,0,0,1.018.643,22.678,22.678,0,0,0-3.191,3.78,9.346,9.346,0,0,1-1.009-.55.754.754,0,0,0,.026-.159Zm-.18.072v.008c-.114-.074-.225-.149-.329-.227A.982.982,0,0,1,110.442,671.594Zm-.421-3.538a1.645,1.645,0,0,1,1.029-.382C110.695,667.793,110.351,667.919,110.022,668.056Zm.127.306a.6.6,0,0,1,.118.4,1.357,1.357,0,0,1-.017.158c0,.037-.031.02-.043.012a1.04,1.04,0,0,0-.749-.2.462.462,0,0,0-.283.256c-.059,0-.421-.012-.661-.021.446-.244.944-.479,1.475-.706A.352.352,0,0,1,110.149,668.362Zm-.4-.259-.047.09c-.513.225-1,.46-1.428.7a.691.691,0,0,1-.016-.075,2.478,2.478,0,0,0,1.226-1.024c.142-.328.424-.774.619-.767.1.006.2.141.28.387l.017.043.041.014a2.17,2.17,0,0,0,.284.059A1.322,1.322,0,0,0,109.75,668.1Zm1.92-.63c-.033,0-.106,0-.222-.006a.967.967,0,0,0,.43-.323,5.751,5.751,0,0,0,1.124.023C112.543,667.251,112.1,667.35,111.671,667.472Zm1.4-.132a.735.735,0,0,0,.117.323,1.037,1.037,0,0,0-.749.487c-.047.088-.07.043-.086.016l-.1-.182-.061.007c-.088.009-.361.012-.446-.1a.157.157,0,0,1-.029-.1.449.449,0,0,1,.042-.155C112.182,667.518,112.623,667.422,113.074,667.341Zm8.461,1.041.009.032.026.019a14.191,14.191,0,0,1,1.66,1.417,14.718,14.718,0,0,0-3.507-2.037,1.21,1.21,0,0,0-.2-.8,3.128,3.128,0,0,0-1.141-.979c.215-.121.39-.211.549-.29a20.985,20.985,0,0,1,2.9,2.144.4.4,0,0,0-.248.137.319.319,0,0,0-.071.208A.456.456,0,0,0,121.535,668.381Zm-5.795.435c.1.031.2.076.31.1a6.3,6.3,0,0,0,.627.1c.047.245.094.5.135.761-.023.03-.041.08-.072.094a.44.44,0,0,1-.389-.064,1.3,1.3,0,0,0-.6-.548.119.119,0,0,1-.069-.154Zm-.138-.231c-.161-.051-.331-.091-.482-.152.254-.234.493-.422.735-.622a.716.716,0,0,1,.489.575.9.9,0,0,1-.415.258h-.007c0-.082-.01-.457-.022-.558a.1.1,0,0,0-.2-.006C115.673,668.194,115.6,668.585,115.6,668.585Zm.555.166a1.719,1.719,0,0,0,.351-.269l.027-.026v-.04a.789.789,0,0,0-.013-.138c.04.177.082.361.121.553C116.483,668.812,116.32,668.785,116.157,668.751Zm.439-.942c-.042-.172-.083-.345-.126-.508v0a12.248,12.248,0,0,1,1.084.857C117.181,668.107,116.691,667.99,116.6,667.809Zm-.088.414a.791.791,0,0,0-.269-.4.653.653,0,0,1,.189.077C116.455,668.006,116.483,668.112,116.508,668.223Zm-.435-.6c.081-.07.162-.144.238-.2.023.085.045.173.067.261A.987.987,0,0,0,116.072,667.626Zm-1.132.723a3.346,3.346,0,0,1-1.447-1.089,12.063,12.063,0,0,1,2.756-.081.462.462,0,0,0,.013.051C115.843,667.555,115.4,667.925,114.94,668.349Zm.034.216c.184.078.394.13.592.193,0,0-.043.215-.066.338a.271.271,0,0,0,.155.323c.194.092.488.269.548.485l.008.033.029.019a.632.632,0,0,0,.578.084c.016-.005.019-.028.033-.036a28,28,0,0,1,.332,3.453,19.285,19.285,0,0,1-2.138-.129,15.34,15.34,0,0,1-3.271-.987A22.361,22.361,0,0,1,114.975,668.565Zm2.017.641a1.52,1.52,0,0,1-.048.273c-.027-.147-.05-.3-.079-.444.078.007.144,0,.218,0-.052.08-.088.141-.088.141Zm-.161-.353c-.052-.266-.108-.514-.166-.756a2.783,2.783,0,0,0,.871.243c-.065.1-.213.326-.339.524C117.075,668.859,116.957,668.865,116.831,668.853Zm.924-.514c.164.151.332.292.5.458a4.58,4.58,0,0,1-.84.074C117.529,668.687,117.665,668.477,117.755,668.339Zm-1.107-1.124a12,12,0,0,1,2.87.719.982.982,0,0,1-.352.474l-.052.036a2.079,2.079,0,0,1-.659.3A12.75,12.75,0,0,0,116.648,667.215Zm2.819,1.137a1.091,1.091,0,0,0,.221-.357c.166.066.336.151.5.227Zm.981.009.863.472c-.01.091-.069.611-.081.741l-.008,0a.365.365,0,0,1-.15-.255l-.04-.211-.125.175a.5.5,0,0,1-.348.2.688.688,0,0,1-.51-.326l-.589-.615Zm-1.215.2.679.709a.833.833,0,0,0,.654.387.6.6,0,0,0,.382-.162.476.476,0,0,0,.177.227.535.535,0,0,0,.334.073.657.657,0,0,0,.237.5,1.026,1.026,0,0,0,.773.1c0,.061-.012.126-.012.18a.747.747,0,0,0,.237.657.516.516,0,0,0,.479.012c.026.04.087.135.143.225a2.768,2.768,0,0,1-.529.615,4.529,4.529,0,0,1-1.437.791,16.411,16.411,0,0,0-2.756-4A2.24,2.24,0,0,0,119.233,668.565Zm4,2.442-.076.044s-.22.125-.366.029-.184-.372-.135-.792l.014-.141-.134.043a.973.973,0,0,1-.735-.042.523.523,0,0,1-.182-.45v-.118l-.114.03a.452.452,0,0,1-.106.011l.088-.732a16.156,16.156,0,0,1,2.23,1.574c-.009.056-.031.109-.041.163-.08.187-.21.49-.276.645C123.346,671.177,123.235,671.007,123.235,671.007Zm-3.865-3.9a1.1,1.1,0,0,1,.193.585.548.548,0,0,1-.005.055,12.074,12.074,0,0,0-2.742-.7,16.283,16.283,0,0,1,1.374-.908A3.1,3.1,0,0,1,119.371,667.111Zm-2.818-.1c-.056-.006-.108-.006-.161-.012-.161-.581-.318-1.087-.461-1.495a6.033,6.033,0,0,1,.842.12,5.68,5.68,0,0,1,1.216.423A17.13,17.13,0,0,0,116.553,667.015Zm-.385-.144a11.282,11.282,0,0,0-2.2-1.079,3.731,3.731,0,0,1,1.77-.3C115.865,665.872,116.014,666.338,116.168,666.872Zm-.209.1a12.509,12.509,0,0,0-2.543.116.923.923,0,0,1-.1-.587.966.966,0,0,1,.44-.585A11.274,11.274,0,0,1,115.958,666.969Zm-2.623.385a2.082,2.082,0,0,0,.23.287c-.035,0-.064-.006-.1-.006s-.067-.01-.088-.03a.45.45,0,0,1-.123-.3.38.38,0,0,1,.058-.012A.373.373,0,0,0,113.336,667.354Zm3.67,2.477a1.268,1.268,0,0,0,.166-.588c.006-.009.058-.089.129-.2a4.654,4.654,0,0,0,1.1-.1,16.1,16.1,0,0,1,2.78,4,12.633,12.633,0,0,1-3.809.519A27.927,27.927,0,0,0,117.006,669.831Zm4.258,3.277c.25.506.486,1.049.714,1.622a8.143,8.143,0,0,0-4.6-.332c0-.253,0-.505-.006-.75A12.59,12.59,0,0,0,121.264,673.108Zm2.518-3.2a2.136,2.136,0,0,1-.034.3l-.076-.087a9.243,9.243,0,0,0-1.963-1.819.214.214,0,0,1-.013-.068.153.153,0,0,1,.029-.1.441.441,0,0,1,.289-.089c.044,0,.147-.061.076-.148a17.228,17.228,0,0,0-2.965-2.252c.173-.08.294-.133.346-.154a10.177,10.177,0,0,1,4.325,4.281Zm-4.931-4.325c-.214.077-.688.252-.734.271-1.328-.393-1.4-1.1-1.4-1.242a.154.154,0,0,1,0-.02,9.834,9.834,0,0,1,2.534.8C119.156,665.435,119.014,665.5,118.851,665.583Zm-3.183-.269a3.638,3.638,0,0,0-1.922.4c-.127-.042-.241-.07-.358-.107a4.575,4.575,0,0,1,1.969-1.09C115.427,664.684,115.531,664.939,115.668,665.314Zm-2.453.2c-.034-.006-.155-.026-.278-.044a9.35,9.35,0,0,0-1.726-.286,9.789,9.789,0,0,1,3.813-.774A5.224,5.224,0,0,0,113.214,665.519Zm-.671.048c-.131.268-.307.687-.408.845a.487.487,0,0,1-.466.218c-.174-.027-.268-.22-.463-.409-.49-.473-1.492-.186-1.63-.137a7.692,7.692,0,0,1,1.281-.724A7.977,7.977,0,0,1,112.543,665.567Zm-1.471.781c.23.211.272.412.612.463a.632.632,0,0,0,.581-.3c.123-.2.408-.787.461-.892.033,0,.1.024.183.037.209.054.422.113.652.189a1.076,1.076,0,0,0-.422.614.931.931,0,0,0,.04.475l-.066.034a4.166,4.166,0,0,1-1.258-.011l-.056,0-.033.047c-.336.5-1.05.355-1.226.309-.109-.3-.247-.453-.428-.462-.4-.016-.749.778-.791.868a2.323,2.323,0,0,1-1.1.925,3.729,3.729,0,0,1-.062-1.277s.019-.084.041-.175a9.955,9.955,0,0,1,1.008-.831S110.538,665.861,111.072,666.348Zm-2.911,2.816a4.411,4.411,0,0,0,.458.93,5.3,5.3,0,0,0,1,1.116,1.189,1.189,0,0,0-.5.323,1.8,1.8,0,0,0-.89.509,1.081,1.081,0,0,0-.433-.3,1.166,1.166,0,0,0-.063-1,1.24,1.24,0,0,0-.884-.472l-.03,0a.848.848,0,0,0-.16-.116l.041-.048A17.18,17.18,0,0,1,108.162,669.164Zm-1.13,1.336a.913.913,0,0,1,.553.354.962.962,0,0,1,.054.769,2.162,2.162,0,0,0-.472-.327,1.081,1.081,0,0,0,.034-.278A.939.939,0,0,0,107.031,670.5Zm.979-1.46c-.057.02-.593.364-.89.561a7.213,7.213,0,0,0,.839-1.406,4.218,4.218,0,0,0,.083.509C107.819,668.8,107.957,668.99,108.01,669.04Zm-.066-1.31a.341.341,0,0,1-.025.081,7.007,7.007,0,0,1-1.345,2.171c-.234.169-.446.329-.6.454a9.911,9.911,0,0,1,1.993-3.015C107.956,667.488,107.949,667.6,107.943,667.73Zm-1.45,2.538a.829.829,0,0,1,.479,1.045l-.033.088.09.03a2.122,2.122,0,0,1,.6.433l.025.023.031,0a.956.956,0,0,1,.486.361l.1.13.058-.153c.112-.285.652-.474.853-.521l.027-.006.02-.021a.909.909,0,0,1,.545-.325,7.06,7.06,0,0,0,.632.446.5.5,0,0,1-.148.269.965.965,0,0,1-.715.128l-.062-.012-.034.053a.747.747,0,0,1-.618.262l-.03.18a.439.439,0,0,1,.307.229.425.425,0,0,1,.034.176.716.716,0,0,1-.054.265.584.584,0,0,1-.486.1c-.432-.114-.727-.71-.73-.716l-.032-.066-.07.017a.862.862,0,0,1-.76-.105,1.421,1.421,0,0,1-.408-.966l0-.074-.074-.013a.92.92,0,0,1-.742-.614c.015-.034.02-.074.035-.108C105.947,670.694,106.185,670.5,106.494,670.268Zm-.07,1.419a1.487,1.487,0,0,0,.472,1.038,1.007,1.007,0,0,0,.842.148,1.542,1.542,0,0,0,.819.753.77.77,0,0,0,.655-.136l.02-.015.011-.022a.915.915,0,0,0,.083-.368.631.631,0,0,0-.052-.254.559.559,0,0,0-.147-.184.784.784,0,0,0,.43-.264,1.074,1.074,0,0,0,.818-.174.637.637,0,0,0,.2-.3,9.8,9.8,0,0,0,.936.5c-.4.6-.788,1.228-1.165,1.916a6,6,0,0,0-3.537,1.1l-.017.016-.346.62a12.549,12.549,0,0,1-1.2-2.858,9.642,9.642,0,0,1,.462-2.049A1.1,1.1,0,0,0,106.424,671.687Zm-.064,4.556-.634,1.208a12.92,12.92,0,0,1-.418-1.915l-.033,0a10.182,10.182,0,0,1-.092-1.269c0-.193.02-.382.03-.572A10.588,10.588,0,0,0,106.36,676.243Zm2.217,4.463a5.656,5.656,0,0,1,4.7,1.313h2.765a5.6,5.6,0,0,1,.83-.576,10.889,10.889,0,0,1-1.154,2.644c-.188.013-.377.025-.566.03-.039,0-.074,0-.111,0-.081,0-.164,0-.245-.006-.034,0-.07,0-.106,0-.078,0-.155-.006-.233-.011s-.141-.008-.209-.014l-.157-.013a9.8,9.8,0,0,1-5.51-2.416C108.561,681.284,108.564,680.955,108.577,680.706Zm8.512.616a5.857,5.857,0,0,1,5.1-.3,9.808,9.808,0,0,1-6.257,3.053A11.068,11.068,0,0,0,117.089,681.321Zm4.782-2.531-.165-.03a9.453,9.453,0,0,0-1.879-.154c-.083,0-.168.007-.251.011q-.4.017-.808.074c-.081.013-.161.02-.24.033a8.781,8.781,0,0,0-1.038.236c-.074.02-.152.051-.226.074-.287.092-.576.2-.87.326-.1.044-.2.088-.307.137a10.452,10.452,0,0,0-1.106.6v-4.4s.006,0,.009-.005l0,0,0,0h0c.051-.036.123-.09.246-.166v0c.121-.075.28-.163.468-.261l.023-.012a6.637,6.637,0,0,1,.65-.289l.051-.019a7.474,7.474,0,0,1,.817-.255.287.287,0,0,0,.034-.012h.013l.086-.019v-.006c.033-.008.073-.013.108-.021.088-.019.181-.035.274-.052s.186-.031.28-.044.191-.026.287-.035.21-.017.316-.024.2-.01.3-.013.23,0,.348,0c.1,0,.2.006.309.012.124.009.257.024.388.04.1.01.2.022.308.037.143.024.289.055.433.085.1.021.2.037.3.065.166.04.336.094.507.147.088.029.173.05.266.083q.391.134.8.316c.035.067,2,3.942,2.438,4.7a7.261,7.261,0,0,0-1.538-.693q-.387-.145-.823-.27C122.435,678.91,122.157,678.848,121.871,678.79Zm-18.379-1.128-.508.1-.063-.319a.959.959,0,0,1-.195.182.711.711,0,0,1-.252.1.91.91,0,0,1-.786-.19,1.173,1.173,0,0,1-.3-1.487.921.921,0,0,1,.648-.484.807.807,0,0,1,.263-.01,1.057,1.057,0,0,1,.257.077l-.063-.3.508-.1.183.894.333-.069.13.641-.333.069Zm-2.732,1.692-.531.109-.6-2.915a.292.292,0,0,1,.022-.227.361.361,0,0,1,.24-.129l1.009-.207.123.6-.8.164Zm.592-.153-.125-.6,2.5-.509.123.6-.908.186.1.486-.537.11-.1-.486Zm4.546,4.78-.431.333-.979-1.262-.391.3.864,1.116-1.164.9-.378-.486.737-.571-1.735-2.237.429-.333.872,1.124.392-.3-.948-1.225.428-.332,1.815,2.338.518-.4-1.734-2.239.429-.333,2.11,2.724-.95.735Zm3.763,5.153L107,687.823a.323.323,0,0,1-.172-.157.365.365,0,0,1,.047-.269l.451-.918.549.272-.354.722,2.383,1.174Zm1.525-2.052-.44-.217-.7,1.425-.55-.27.316-.645-2.652-1.306.24-.488.534.262.262-.529.547.268-.262.529.494.244.431-.87-1.425-.7.237-.484,1.975.971-.664,1.355.526.258.666-1.354.55.271-.283.573.443.217Zm1.357,2.6-.009,0,.012,0Zm3.99-1.442-.393.006a1.019,1.019,0,0,1,.209.3.989.989,0,0,1,.082.365,1.121,1.121,0,0,1-.378.857,1.336,1.336,0,0,1-.935.372,1.323,1.323,0,0,1-.936-.34,1.117,1.117,0,0,1-.4-.846.974.974,0,0,1,.058-.359,1.283,1.283,0,0,1,.179-.32l-1.058.016-.009-.539.593-.009-.01-.6.609-.009.009.595.557-.007-.016-.966-1.586.025-.009-.539,2.2-.037.026,1.506.587-.009-.026-1.5.614-.012.009.5.491-.008.007.544-.489.008Zm6-.348-.884-1.81-.227.112.886,1.809-.517.253-.357-.731-1.56.764a.319.319,0,0,1-.227.038.366.366,0,0,1-.18-.2l-1.132-2.314,1.557-.763.239.489-1,.492.8,1.63,1.272-.623-1.038-2.118.515-.251.5,1.031.227-.111-.506-1.031.528-.258,1.634,3.336Zm1.228-4.229a.7.7,0,0,1-.143-.15.783.783,0,0,1-.085-.187l-.155.2-.4-.311.5-.645-.269-.209.4-.515.266.208.5-.635.4.312-.157.2a.722.722,0,0,1,.2.037.625.625,0,0,1,.19.1.837.837,0,0,1,.332.656,1.047,1.047,0,0,1-.229.7,1.07,1.07,0,0,1-.628.4A.83.83,0,0,1,123.766,683.662Zm3.781-.5-.823-.642-1.614,2.075-.43-.334,1.991-2.559,1.254.977Zm1.648-3.613-.532-.111.119-.57-1.5-.31.126-.6,1.5.309.086-.424-1.495-.31.123-.6,1.5.309.114-.542-2.383-.493-.521,2.519-.532-.112.645-3.118,2.913.6.062-.29.532.111Z" transform="translate(-98.442 -658.3)"/><path class="a" d="M104.888,689.064a.464.464,0,0,0-.371-.075.469.469,0,0,0-.309.215.52.52,0,0,0,.143.694.446.446,0,0,0,.368.085.459.459,0,0,0,.311-.223.526.526,0,0,0,.061-.371A.509.509,0,0,0,104.888,689.064Z" transform="translate(-100.822 -671.131)"/></g></g></svg>